 <svg  version="1.0" xmlns="http://www.w3.org/2000/svg"  width="300.000000pt" height="300.000000pt" viewBox="0 0 300.000000 300.000000"  preserveAspectRatio="xMidYMid meet">  <g transform="translate(0.000000,300.000000) scale(0.100000,-0.100000)" fill="#0000ff" stroke="none"> <path d="M1592 2529 c-79 -10 -259 -29 -400 -44 -590 -59 -817 -87 -830 -99 -25 -25 -25 -116 2 -276 13 -85 30 -204 36 -265 13 -138 79 -655 90 -715 5 -28 16 -50 29 -59 17 -11 21 -24 21 -72 0 -68 -14 -51 185 -218 284 -239 477 -391 502 -397 33 -9 112 9 249 57 150 51 855 278 1029 330 77 23 148 49 158 57 15 13 17 29 15 86 l-3 71 -260 152 c-143 84 -306 179 -362 210 l-102 58 -1 95 c0 133 -22 292 -80 595 -28 143 -53 294 -57 335 -3 41 -10 85 -14 98 -10 26 -11 26 -207 1z m173 -86 c7 -72 45 -300 96 -578 23 -129 32 -209 35 -330 3 -110 8 -163 16 -171 7 -7 83 -53 168 -102 181 -105 499 -297 512 -310 5 -5 6 -25 3 -45 -7 -35 -7 -35 -113 -66 -59 -18 -271 -77 -472 -132 -201 -55 -444 -124 -540 -153 -243 -74 -227 -73 -286 -24 -27 22 -140 115 -252 205 -311 253 -298 241 -307 318 -5 47 -12 69 -26 78 -16 12 -26 61 -64 328 -69 473 -83 566 -105 659 -19 84 -36 210 -29 210 2 0 78 11 169 25 91 13 320 44 510 69 190 25 408 54 485 65 211 29 192 33 200 -46z m-1204 -1325 c10 -13 18 -32 18 -43 1 -18 -1 -18 -19 5 -19 25 -33 60 -23 60 3 0 13 -10 24 -22z m68 -168 c20 -17 108 -93 196 -168 259 -224 358 -304 388 -317 37 -15 96 -5 236 41 122 41 361 103 361 95 0 -3 -114 -43 -253 -89 -262 -87 -313 -96 -357 -65 -36 25 -492 398 -551 450 -76 69 -94 114 -20 53z"/> <path d="M1665 2465 c-5 -2 -100 -13 -210 -25 -454 -48 -579 -62 -760 -86 -107 -15 -196 -32 -203 -39 -17 -16 12 -264 88 -750 62 -395 59 -384 91 -407 26 -19 27 -19 125 5 54 14 232 63 394 110 162 46 382 106 488 132 118 29 196 53 199 61 10 27 -131 970 -149 991 -10 12 -41 16 -63 8z m74 -337 c38 -273 81 -611 77 -614 -5 -6 -592 -144 -804 -189 -145 -31 -269 -58 -276 -61 -14 -5 -24 48 -107 586 -33 212 -62 392 -64 401 -5 13 19 19 152 38 87 12 289 42 448 66 454 69 478 73 506 74 l25 1 43 -302z m-995 -898 c11 0 77 11 145 26 67 14 128 23 134 21 12 -4 -179 -61 -265 -79 -69 -14 -77 -9 -85 53 l-6 44 27 -32 c16 -19 37 -33 50 -33z"/> <path d="M1835 1329 c-16 -5 -151 -34 -299 -64 -148 -30 -395 -87 -550 -126 -395 -101 -396 -102 -161 -289 79 -63 155 -119 167 -124 17 -6 55 3 143 32 128 43 428 146 458 157 13 5 17 2 17 -13 0 -26 105 -123 163 -151 50 -24 67 -21 136 24 22 15 72 39 113 54 68 25 73 29 73 56 0 27 -7 34 -75 68 -69 35 -80 37 -134 32 -60 -6 -141 -40 -166 -70 -11 -13 -11 -20 0 -41 23 -41 75 -67 123 -61 l42 6 -24 -20 c-31 -26 -49 -24 -102 9 -50 33 -134 116 -134 134 0 19 195 75 204 59 8 -13 112 11 300 69 97 30 116 44 104 75 -5 13 -329 187 -358 192 -5 1 -23 -3 -40 -8z m172 -104 c70 -41 130 -75 135 -75 4 0 8 -4 8 -10 0 -5 -9 -10 -21 -10 -30 0 -233 -52 -487 -126 -268 -77 -629 -167 -645 -161 -7 3 -50 35 -95 71 -46 36 -91 70 -100 75 -9 5 -14 12 -11 15 7 7 152 48 374 106 88 22 248 65 355 95 318 88 334 93 348 94 7 0 70 -33 139 -74z m-1241 -211 c-6 -22 0 -33 36 -68 61 -58 166 -135 194 -142 13 -3 73 6 135 21 61 14 113 24 116 22 7 -7 -166 -67 -213 -74 -41 -5 -48 -2 -131 57 -186 134 -224 178 -170 200 35 14 40 12 33 -16z m1193 -81 c22 -16 40 -31 41 -34 0 -3 -42 -16 -94 -29 l-95 -23 -36 23 c-20 12 -33 25 -30 28 5 6 154 60 167 61 4 1 26 -11 47 -26z"/> </g> </svg> 
